<svg viewBox="0 0 32 32">
<path d="M20.666 3.906c-3.314 0-6 2.687-6 6s2.686 6 6 6c3.314 0 6-2.687 6-6s-2.686-6-6-6zM10.666 5.24c-2.945 0-5.333 2.388-5.333 5.333s2.388 5.333 5.333 5.333c1.106 0 2.153-0.337 3.042-0.959 0.604-0.421 0.755-1.271 0.333-1.875s-1.23-0.713-1.833-0.292c-0.444 0.311-0.987 0.459-1.542 0.459-1.473 0-2.667-1.193-2.667-2.667s1.194-2.667 2.667-2.667c0.435 0 0.833 0.096 1.208 0.292 0.653 0.34 1.494 0.111 1.833-0.543 0.34-0.652 0.070-1.493-0.583-1.832-0.753-0.392-1.593-0.584-2.458-0.584zM20.666 6.573c1.841 0 3.333 1.492 3.333 3.333s-1.492 3.333-3.333 3.333c-1.841 0-3.333-1.492-3.333-3.333s1.492-3.333 3.333-3.333zM6.749 17.698c-2.445 1.009-4.083 3.483-4.083 6.208v2.667c0 0.736 0.597 1.333 1.333 1.333h5.333c0.736 0 1.333-0.597 1.333-1.333s-0.597-1.333-1.333-1.333h-4v-1.333c0-1.499 0.889-2.875 1.911-3.48 0.961 0.405 1.977 0.712 2.881 0.788 0.734 0.063 1.396-0.491 1.458-1.225 0.062-0.733-0.468-1.355-1.202-1.417-0.585-0.049-1.225-0.225-1.965-0.54-0.179-0.076-0.282-0.136-0.625-0.292-0.336-0.153-0.701-0.183-1.042-0.041zM16.082 17.698c-2.445 1.009-4.083 3.483-4.083 6.208v2.667c0 0.736 0.597 1.333 1.333 1.333h14.667c0.736 0 1.333-0.597 1.333-1.333v-2.667c0-2.661-1.647-5.075-4.083-6.125-0.343-0.148-0.743-0.152-1.083 0-1.18 0.529-2.329 0.792-3.5 0.792-1.167 0-2.32-0.277-3.542-0.833-0.336-0.153-0.701-0.183-1.042-0.041zM16.595 20.426c1.26 0.477 2.779 0.813 4.071 0.813 1.282 0 2.738-0.313 3.972-0.769 1.203 0.685 2.028 1.968 2.028 3.436v1.333h-12v-1.333c0-1.553 0.875-2.863 1.929-3.48z"></path>
</svg>