<svg viewBox="0 0 32 32">
<path d="M10.668 1.333c-5.155 0-9.333 2.089-9.333 4.667v10.667c0 2.351 3.477 4.296 8.001 4.62 0.735 0.052 1.333-0.55 1.333-1.286s-0.598-1.329-1.333-1.373c-3.043-0.185-5.334-0.992-5.334-1.96v-2c1.401 0.715 3.257 1.159 5.334 1.292 0.735 0.047 1.333-0.555 1.333-1.292s-0.598-1.329-1.333-1.373c-3.043-0.185-5.334-0.992-5.334-1.96v-2c1.694 0.864 4.055 1.333 6.667 1.333s4.973-0.469 6.667-1.333h1.333c0.736 0 1.333-0.597 1.333-1.333v-2c0-2.577-4.179-4.667-9.333-4.667zM4.001 6c0-1.104 2.985-2 6.667-2s6.667 0.896 6.667 2c0 1.104-2.985 2-6.667 2s-6.667-0.896-6.667-2z"></path>
<path d="M30.668 15.333c0-2.577-4.179-4.667-9.333-4.667s-9.333 2.089-9.333 4.667v10.667c0 2.577 4.179 4.667 9.333 4.667s9.333-2.089 9.333-4.667v-10.667zM14.668 26c0 1.105 2.985 2 6.667 2s6.667-0.895 6.667-2v-2c-1.694 0.864-4.055 1.333-6.667 1.333s-4.973-0.469-6.667-1.333v2zM21.334 22.666c-3.682 0-6.667-0.895-6.667-2v-2c1.694 0.864 4.055 1.333 6.667 1.333s4.973-0.469 6.667-1.333v2c0 1.105-2.985 2-6.667 2zM21.334 13.333c-3.682 0-6.667 0.895-6.667 2s2.985 2 6.667 2c3.682 0 6.667-0.895 6.667-2s-2.985-2-6.667-2z"></path>
</svg>