<svg viewBox="0 0 32 32">
<path d="M9.332 1.333c0.736 0 1.333 0.597 1.333 1.333v1.333h10.667v-1.333c0-0.736 0.597-1.333 1.333-1.333s1.333 0.597 1.333 1.333v1.333h1.333c2.209 0 4 1.791 4 4v8.34c-0.805-0.562-1.704-1-2.667-1.287v-0.386h-21.333v12c0 0.736 0.597 1.333 1.333 1.333h8.898c0.475 0.999 1.122 1.901 1.903 2.667h-10.801c-2.209 0-4-1.791-4-4v-18.667c0-2.209 1.791-4 4-4h1.333v-1.333c0-0.736 0.597-1.333 1.333-1.333zM21.332 8v-1.333h-10.667v1.333c0 0.736-0.597 1.333-1.333 1.333s-1.333-0.597-1.333-1.333v-1.333h-1.333c-0.736 0-1.333 0.597-1.333 1.333v4h21.333v-4c0-0.736-0.597-1.333-1.333-1.333h-1.333v1.333c0 0.736-0.597 1.333-1.333 1.333s-1.333-0.597-1.333-1.333z"></path>
<path d="M22.666 21.333c0-0.736 0.597-1.333 1.333-1.333s1.333 0.597 1.333 1.333v2.271l1.173 1.173c0.521 0.521 0.521 1.365 0 1.886s-1.365 0.521-1.886 0l-1.564-1.564c-0.28-0.28-0.41-0.654-0.388-1.021-0.001-0.026-0.002-0.052-0.002-0.078v-2.667z"></path>
<path d="M31.999 24c0 4.418-3.582 8-8 8s-8-3.582-8-8c0-4.418 3.582-8 8-8s8 3.582 8 8zM18.642 24c0 2.959 2.399 5.357 5.357 5.357s5.358-2.399 5.358-5.357c0-2.959-2.399-5.358-5.358-5.358s-5.357 2.399-5.357 5.358z"></path>
</svg>