<svg xmlns="http://www.w3.org/2000/svg" viewBox="0 0 23 23" fill="currentColor">
<path d="M20.8437 1.91602H2.15627C0.967224 1.91602 0 2.94772 0 4.21603V18.016C0 19.2843 0.967224 20.316 2.15627 20.316H20.8437C22.0328 20.316 23 19.2843 23 18.016V4.21603C23 2.94772 22.0328 1.91602 20.8437 1.91602ZM20.8437 3.44934C20.9414 3.44934 21.0343 3.47095 21.1192 3.50869L11.5 12.4015L1.88073 3.50869C1.96566 3.471 2.05856 3.44934 2.15621 3.44934H20.8437ZM20.8437 18.7827H2.15627C1.75969 18.7827 1.43749 18.439 1.43749 18.0159V5.12867L11.0291 13.9955C11.1645 14.1205 11.3323 14.1827 11.5 14.1827C11.6677 14.1827 11.8355 14.1206 11.9709 13.9955L21.5625 5.12867V18.016C21.5625 18.439 21.2403 18.7827 20.8437 18.7827Z" />
</svg>