<svg xmlns="http://www.w3.org/2000/svg" viewBox="0 0 23 23" >
<path d="M18.415 1.81668C17.2314 2.27546 16.2129 2.66084 16.1486 2.67919C15.9927 2.74342 16.4331 3.89037 16.5982 3.85367C16.6625 3.83531 17.0387 3.69768 17.4424 3.55087C17.837 3.39488 18.1765 3.29395 18.204 3.3123C18.2315 3.34901 14.7081 7.99186 14.3869 8.35889C14.3502 8.39559 13.5611 7.53308 12.6344 6.45036L10.9461 4.46843L6.89963 8.51487L7.31253 8.92777C7.53275 9.15716 7.76214 9.34068 7.81719 9.34068C7.86307 9.34985 8.56959 8.66168 9.37705 7.8267L10.8451 6.30355L12.5885 8.36806C13.5519 9.49666 14.3502 10.4326 14.3777 10.4326C14.4053 10.4326 15.5431 8.97365 16.901 7.18441L19.3785 3.94542L19.4335 6.31273H20.7089V3.6518C20.7089 2.18371 20.6814 0.990877 20.6447 1.00005C20.5988 1.00005 19.5987 1.36708 18.415 1.81668Z" />
<path d="M5.58752 9.82698C5.27555 10.139 5.01863 10.4417 5.01863 10.4968C5.01863 10.5519 5.21132 10.7721 5.44071 10.9923L5.86279 11.3868L6.46838 10.7721L7.08314 10.1665L6.16558 9.24892L5.58752 9.82698Z" />
<path d="M9.0926 10.5702C8.92744 10.6987 8.91827 10.8822 8.89991 16.6078C8.88156 21.2414 8.89992 22.5535 8.99167 22.7371C9.10178 22.9573 9.13848 22.9664 10.212 22.994C11.1663 23.0123 11.3406 22.994 11.4507 22.8655C11.5608 22.7371 11.5792 21.7277 11.5792 16.8738C11.5884 13.6624 11.5517 10.9372 11.5058 10.8088C11.4691 10.6895 11.3773 10.5519 11.3223 10.5152C11.1112 10.3867 9.28529 10.4326 9.0926 10.5702Z" />
<path d="M3.43125 11.9832C3.19269 12.2218 3 12.4604 3 12.5154C3 12.5613 3.18351 12.7907 3.4129 13.0109L3.8258 13.4146L4.34881 12.9008L4.86265 12.3778L4.41304 11.9649C4.1653 11.7355 3.94509 11.552 3.91756 11.5428C3.89003 11.5428 3.66982 11.7447 3.43125 11.9832Z" />
<path d="M14.3686 13.2587C14.1851 13.4697 14.1392 22.3884 14.3135 22.7371C14.4236 22.9664 14.442 22.9664 15.5706 22.9664C16.6717 22.9664 16.7175 22.9573 16.8185 22.7554C16.9836 22.4251 16.9469 13.4605 16.7726 13.2587C16.5891 13.0293 14.5521 13.0293 14.3686 13.2587Z" />
<path d="M3.7524 15.6351L3.55054 15.7728V19.287C3.55054 22.1865 3.56889 22.8288 3.67899 22.9114C3.76158 22.9848 4.1653 23.0123 4.89017 22.994C5.94537 22.9664 5.98207 22.9573 6.09218 22.7371C6.18393 22.5627 6.21146 21.6819 6.21146 19.2228V15.9379L5.98207 15.7177C5.78021 15.5067 5.69763 15.4883 4.86265 15.4883C4.19283 15.4883 3.90838 15.525 3.7524 15.6351Z" />
</svg>