<svg viewBox="0 0 32 32">
<path d="M16.407 4.087c-0.731-0.348-1.617-0.016-1.904 0.711l-2.35 5.961h-3.493c-1.52 0-2.752 1.172-2.752 2.618v6.981c0 1.446 1.232 2.618 2.752 2.618h13.187c1.304 0 2.429-0.87 2.695-2.084l1.529-6.981c0.356-1.626-0.949-3.152-2.695-3.152h-4.728l0.678-1.933c0.578-1.648-0.207-3.449-1.84-4.226l-1.079-0.513zM13.871 11.372l2.171-5.507 0.623 0.296c0.817 0.388 1.209 1.289 0.92 2.113l-0.677 1.933c-0.396 1.13 0.488 2.297 1.741 2.297h4.728c0.582 0 1.017 0.509 0.898 1.051l-0.152 0.695h-3.536c-0.507 0-0.917 0.391-0.917 0.873s0.411 0.873 0.917 0.873h3.153l-0.382 1.745h-2.771c-0.507 0-0.917 0.391-0.917 0.873s0.411 0.873 0.917 0.873h2.389l-0.23 1.051c-0.089 0.405-0.464 0.695-0.898 0.695h-9.518v-8.734c0.692-0.064 1.293-0.496 1.541-1.124zM10.495 12.505h-1.835c-0.507 0-0.917 0.391-0.917 0.873v6.981c0 0.482 0.411 0.873 0.917 0.873h1.835v-8.726z"></path>
<path d="M13.037 3.983c-1.64 0.731-3.937 1.481-8.164 1.74-1.023 0.063-1.69 0.778-1.662 1.495 0.16 3.978 0.668 7.936 1.638 11.182 0.993 3.322 2.375 5.576 4.013 6.565 2.58 1.558 4.703 2.909 6.127 3.833 0.601 0.39 1.421 0.39 2.021 0 1.424-0.925 3.547-2.276 6.127-3.833 1.638-0.989 3.020-3.243 4.013-6.565 0.97-3.246 1.478-7.204 1.638-11.182 0.029-0.717-0.639-1.433-1.662-1.495-4.227-0.259-6.523-1.009-8.164-1.74-0.469-0.209-0.831-0.383-1.129-0.526-0.814-0.391-1.143-0.549-1.834-0.549s-1.020 0.158-1.834 0.549c-0.298 0.143-0.66 0.317-1.129 0.526zM12.285 1.056c0.989-0.485 2.152-1.056 3.715-1.056s2.726 0.571 3.715 1.056c0.23 0.113 0.451 0.221 0.665 0.317 1.244 0.554 3.13 1.213 6.963 1.448 2.516 0.154 4.755 2.009 4.654 4.503-0.165 4.102-0.69 8.299-1.747 11.836-1.034 3.461-2.671 6.619-5.331 8.225-2.544 1.536-4.637 2.868-6.037 3.777-1.719 1.116-4.044 1.116-5.763 0-1.4-0.909-3.493-2.241-6.037-3.777-2.66-1.607-4.297-4.765-5.331-8.226-1.057-3.537-1.582-7.734-1.747-11.836-0.1-2.494 2.138-4.349 4.654-4.503 3.833-0.235 5.718-0.893 6.963-1.448 0.214-0.095 0.435-0.204 0.665-0.317z"></path>
</svg>