<svg xmlns="http://www.w3.org/2000/svg" viewBox="0 0 23 23" fill="currentColor">
<path d="M11.857 1C7.52466 1 4 4.46964 4 8.73438C4 10.1753 4.40547 11.5815 5.17283 12.8014L11.4098 22.6953C11.5292 22.8848 11.7397 23 11.9661 23H11.9713C12.1996 22.9982 12.4105 22.8795 12.5278 22.6867L18.6058 12.697C19.3308 11.5027 19.714 10.1325 19.714 8.73438C19.714 4.46964 16.1894 1 11.857 1ZM17.482 12.0351L11.9562 21.1174L6.28583 12.1223C5.64709 11.1069 5.30077 9.93533 5.30077 8.73438C5.30077 5.18043 8.24672 2.28047 11.857 2.28047C15.4673 2.28047 18.4089 5.18043 18.4089 8.73438C18.4089 9.89975 18.0854 11.0413 17.482 12.0351Z" />
<path d="M11.8565 4.86719C9.69032 4.86719 7.928 6.60201 7.928 8.73437C7.928 10.8531 9.66165 12.6015 11.8565 12.6015C14.0784 12.6015 15.785 10.8298 15.785 8.73437C15.785 6.60201 14.0227 4.86719 11.8565 4.86719ZM11.8565 11.3211C10.4048 11.3211 9.22877 10.1595 9.22877 8.73437C9.22877 7.3128 10.4124 6.14766 11.8565 6.14766C13.3006 6.14766 14.4799 7.3128 14.4799 8.73437C14.4799 10.1387 13.3312 11.3211 11.8565 11.3211Z" />
</svg>