<svg viewBox="0 0 20 20" fill="none" xmlns="http://www.w3.org/2000/svg" xmlns:xlink="http://www.w3.org/1999/xlink">
<path d="M9.41924 10.3313C10.4038 11.4951 11.7945 12.2405 13.3087 12.4161C14.823 12.5917 16.3473 12.1844 17.5721 11.2768C18.7969 10.3692 19.6303 9.02941 19.9031 7.52959C20.1758 6.02977 19.8675 4.48237 19.0406 3.20167C18.2138 1.92098 16.9305 1.00303 15.4513 0.634267C13.9722 0.265504 12.4081 0.473582 11.0769 1.21624C9.74558 1.95889 8.74689 3.18044 8.28365 4.63276C7.8204 6.08509 7.92733 7.65929 8.58272 9.03563L9.72448 8.49194C9.20723 7.40569 9.12284 6.16328 9.48845 5.01706C9.85406 3.87083 10.6423 2.90675 11.6929 2.32062C12.7436 1.73449 13.978 1.57027 15.1454 1.86131C16.3128 2.15235 17.3256 2.87683 17.9782 3.88759C18.6308 4.89836 18.8741 6.11962 18.6589 7.30333C18.4436 8.48703 17.7859 9.54442 16.8192 10.2607C15.8526 10.977 14.6495 11.2985 13.4544 11.1599C12.2593 11.0213 11.1618 10.4331 10.3847 9.51454L9.41924 10.3313Z" fill="#BB5050"/>
<path d="M14 12.456C14 16.322 10.866 19.456 7 19.456C3.13401 19.456 0 16.322 0 12.456C0 8.59004 3.13401 5.45604 7 5.45604C10.866 5.45604 14 8.59004 14 12.456Z" fill="#7D6F6C"/>
</svg>