<svg xmlns="http://www.w3.org/2000/svg" viewBox="0 0 24 24" fill="none">
<path d="M13.067 6.31441C16.1988 7.06891 17.3523 8.33051 18.6067 11.8513M12.6411 2.05455C17.8066 1.371 23.3312 7.24302 22.4421 12.2765M9.34736 9.17977L7.96586 10.5606C7.70618 10.8202 7.64948 11.222 7.83495 11.5388C9.48837 14.3634 10.9841 15.699 13.8213 17.1298C14.1331 17.287 14.5105 17.2226 14.7574 16.9758L15.7945 15.9393C16.4145 15.3195 17.4119 15.2958 18.0606 15.8853L20.3135 17.9323C21.0079 18.5633 21.0337 19.6468 20.3701 20.3102L18.5949 22.0845C18.3268 22.3524 17.9743 22.526 17.5952 22.5342C9.21621 22.7156 -0.0855703 9.23725 2.41349 6.74004C3.40074 5.75352 4.13379 5.02089 4.66178 4.49315C5.30343 3.85178 6.34264 3.85259 6.98431 4.49393L9.34736 6.8558C9.98936 7.49745 9.98936 8.53812 9.34736 9.17977Z" stroke="currentColor" stroke-width="1.64287"/>
</svg>