<svg xmlns="http://www.w3.org/2000/svg" viewBox="0 0 23 23" >
<path fill-rule="evenodd" clip-rule="evenodd" d="M6.28043 1.53831C6.81384 1.27162 7.4502 0.958008 8.62565 0.958008C9.80109 0.958008 10.4374 1.27159 10.9709 1.53828L10.9861 1.54592C11.4036 1.75468 11.7267 1.91625 12.459 1.91628C13.6445 1.91632 14.3467 1.47427 14.5808 1.29833C14.9453 1.02444 15.3759 1.04753 15.6732 1.18504C15.9743 1.32431 16.2923 1.65662 16.2923 2.14776L16.2923 12.458H19.1673C20.7545 12.458 22.0423 13.7436 22.0423 15.332V18.208C22.0423 19.0945 21.818 19.823 21.4321 20.4017C21.0503 20.9744 20.5481 21.3443 20.0751 21.5808C19.6058 21.8154 19.148 21.928 18.8158 21.9834C18.6161 22.0167 18.4118 22.0417 18.209 22.0413H4.79232C3.90587 22.0413 3.17733 21.817 2.59862 21.4312C2.02591 21.0494 1.65606 20.5472 1.41953 20.0741C1.18488 19.6048 1.07233 19.1471 1.01695 18.8148C0.988876 18.6464 0.97447 18.5039 0.967035 18.3998C0.96084 18.3131 0.95901 18.2618 0.958984 18.208V2.14774C0.958984 1.65662 1.277 1.32432 1.57812 1.18504C1.87542 1.04752 2.30603 1.02443 2.67047 1.2983C2.90459 1.47424 3.60676 1.91628 4.79232 1.91628C5.52463 1.91628 5.84771 1.75471 6.26516 1.54594L6.28043 1.53831ZM2.87883 18.208L2.87565 3.52989C3.39332 3.70437 4.03267 3.83295 4.79232 3.83295C5.96777 3.83295 6.60413 3.51933 7.13754 3.25265L7.15281 3.24501C7.57026 3.03625 7.89334 2.87467 8.62565 2.87467C9.35798 2.87467 9.68107 3.03624 10.0985 3.245L10.1138 3.25263C10.6472 3.5193 11.2835 3.83291 12.459 3.83295C13.2186 3.83297 13.858 3.70441 14.3757 3.52992V18.208C14.3757 18.9584 14.5364 19.5957 14.8198 20.1247H4.79232C4.24126 20.1247 3.89168 19.9897 3.6618 19.8364C3.42591 19.6792 3.2567 19.4626 3.13385 19.2169C3.00913 18.9675 2.942 18.7064 2.90753 18.4997C2.89134 18.4025 2.88151 18.3061 2.87883 18.208ZM18.5007 20.0928C18.7074 20.0583 18.9685 19.9912 19.2179 19.8665C19.4636 19.7436 19.6801 19.5744 19.8374 19.3385C19.9906 19.1086 20.1257 18.7591 20.1257 18.208V15.332C20.1257 14.8034 19.6972 14.3747 19.1673 14.3747H16.2923L16.2923 18.208C16.2923 18.7591 16.4273 19.1086 16.5806 19.3385C16.7378 19.5744 16.9544 19.7436 17.2001 19.8665C17.4495 19.9912 17.7105 20.0583 17.9173 20.0928C18.0184 20.1096 18.1006 20.1177 18.1537 20.1215C18.2693 20.1298 18.387 20.1117 18.5007 20.0928Z" />
<path d="M4.79232 7.66634C4.79232 7.13707 5.22138 6.70801 5.75065 6.70801H11.5007C12.0299 6.70801 12.459 7.13707 12.459 7.66634C12.459 8.19561 12.0299 8.62467 11.5007 8.62467H5.75065C5.22138 8.62467 4.79232 8.19561 4.79232 7.66634Z" />
<path d="M4.79232 11.4997C4.79232 10.9704 5.22138 10.5413 5.75065 10.5413H11.5007C12.0299 10.5413 12.459 10.9704 12.459 11.4997C12.459 12.0289 12.0299 12.458 11.5007 12.458H5.75065C5.22138 12.458 4.79232 12.0289 4.79232 11.4997Z" />
<path d="M4.79232 15.333C4.79232 14.8037 5.22138 14.3747 5.75065 14.3747H11.5007C12.0299 14.3747 12.459 14.8037 12.459 15.333C12.459 15.8623 12.0299 16.2913 11.5007 16.2913H5.75065C5.22138 16.2913 4.79232 15.8623 4.79232 15.333Z" />
</svg>