<svg xmlns="http://www.w3.org/2000/svg" viewBox="0 0 38 38">
<path d="M18.6333 0.060856C18.5009 0.114798 17.8246 0.562513 15.157 2.36956C14.5989 2.74715 13.4307 3.53469 12.5604 4.11726C11.6949 4.70523 10.6733 5.39568 10.2902 5.6546C8.25169 7.05708 3.91458 9.96453 0.849752 11.9819C0.537593 12.1869 0.234894 12.4081 0.178138 12.4674C-0.0772645 12.7371 -0.0536162 13.2496 0.220705 13.5462C0.348406 13.6811 3.56458 15.5313 6.28888 17.0417C6.80914 17.3276 8.06723 18.0288 9.08884 18.6006C10.1105 19.167 10.9996 19.6309 11.0658 19.6309C11.1794 19.6309 11.2172 19.5715 11.4206 19.0645C11.7375 18.2931 11.7469 18.2392 11.5767 18.2014C11.0422 18.0612 10.5361 17.8238 8.55912 16.772C7.33414 16.1139 4.1085 14.2691 3.7112 13.9886C3.53148 13.8645 3.3754 13.7135 3.34229 13.6218C3.20513 13.2981 3.42742 12.8342 3.72066 12.8342C3.8058 12.8342 4.68552 13.3089 6.01929 14.0749C7.20643 14.7545 8.19967 15.3155 8.22331 15.3155C8.25169 15.3155 8.04832 15.1591 7.78345 14.9649C6.93211 14.3446 6.06185 13.557 5.35713 12.7587C5.00714 12.3649 4.98822 12.3326 4.98822 12.106C4.98822 11.9172 5.01659 11.8417 5.13484 11.7068C5.38078 11.4263 5.5274 11.4695 5.96726 11.9334C6.93684 12.9637 7.56589 13.5193 8.40304 14.0857C10.8104 15.7093 12.7874 15.9466 14.7692 14.857C15.5685 14.4147 16.1975 13.9184 16.7273 13.3089C17.134 12.845 17.2097 12.7803 17.3516 12.7803C17.4698 12.7803 17.5408 12.818 17.6117 12.9205C17.7394 13.1093 17.7347 13.2064 17.5881 13.4545L17.4698 13.6541L17.5786 13.6272C17.6401 13.611 17.8151 13.584 17.9712 13.5624C18.6002 13.4923 18.5482 13.5301 18.5718 13.1039C18.5955 12.6454 18.7137 12.4566 18.9881 12.4566C19.2482 12.4566 19.3759 12.64 19.4232 13.0877C19.4421 13.2819 19.4705 13.4545 19.4799 13.4653C19.4894 13.4815 19.6691 13.5139 19.8725 13.5409C20.0759 13.5678 20.3124 13.6056 20.4022 13.6218L20.563 13.6487L20.4401 13.4815C20.2083 13.1687 20.3266 12.7803 20.6576 12.7803C20.7806 12.7803 20.861 12.8342 21.0455 13.0554C21.8259 13.967 22.961 14.7761 24.0252 15.1861C25.5292 15.7579 26.9812 15.596 28.6697 14.6736C29.6204 14.1504 30.973 13.077 31.7345 12.2463C32.3352 11.5882 32.4156 11.5234 32.6001 11.5612C32.9406 11.6205 33.1298 12.0359 32.9595 12.338C32.8224 12.5861 31.8575 13.6218 31.3798 14.0425C31.1339 14.2583 30.694 14.6197 30.4055 14.8355C29.7291 15.3479 29.6913 15.3749 29.7481 15.3587C29.8001 15.3371 31.0582 14.6197 32.8838 13.557C33.6737 13.0985 34.1798 12.8342 34.2696 12.8342C34.4777 12.8342 34.6906 13.0877 34.6906 13.3467C34.6906 13.7243 34.6196 13.7998 33.6879 14.3554C32.5622 15.0296 28.996 17.0525 27.9035 17.6296C27.4353 17.8778 26.915 18.1259 26.7447 18.1744C26.5366 18.2338 26.4326 18.2931 26.4231 18.3524C26.4042 18.4549 26.7636 19.3935 26.8771 19.5338C26.915 19.5877 26.9954 19.6309 27.0521 19.6309C27.1893 19.6309 28.3008 19.0159 33.1771 16.2325C35.3764 14.9757 37.2824 13.8915 37.4101 13.816C37.6845 13.6649 37.8405 13.5139 37.9351 13.3089C38.0628 13.023 37.9966 12.6131 37.7838 12.3919C37.7034 12.311 37.2399 12.0035 34.9034 10.4608C33.6453 9.63009 30.5899 7.5911 29.2278 6.67409C27.2744 5.35252 26.2954 4.69983 23.1029 2.58532C22.4644 2.15918 21.4333 1.46873 20.809 1.04799C20.1847 0.627243 19.5651 0.217287 19.4279 0.136374C19.1631 -0.0146622 18.884 -0.041633 18.6333 0.060856ZM19.2624 2.77412L19.3995 2.90358L19.4326 4.23593C19.4658 5.70854 19.5367 6.26414 19.7921 7.08944C20.3313 8.84794 21.2583 10.2019 22.6299 11.2429C24.2664 12.489 26.0495 12.6346 27.7616 11.6637C28.2156 11.4048 28.6082 11.0757 29.2846 10.3961C29.7812 9.89441 29.8852 9.81349 30.0224 9.81349C30.2447 9.81349 30.4812 10.1102 30.4812 10.3853C30.4812 10.5471 30.4291 10.6388 30.0744 11.0541C29.0055 12.3218 27.6528 13.1687 26.3758 13.379C25.7562 13.4761 24.692 13.4168 24.1339 13.2496C22.9941 12.9097 21.8826 12.1869 20.9225 11.1728C20.213 10.423 19.4941 9.23092 19.1063 8.15209L19.0022 7.8662L18.8036 8.36786C18.3968 9.37657 17.8246 10.3259 17.2097 11.011C16.0415 12.311 14.7976 13.0931 13.478 13.3575C12.8442 13.4815 11.7375 13.433 11.1368 13.2496C9.97329 12.899 8.87601 12.1492 7.88751 11.0272C7.53751 10.628 7.49494 10.5633 7.49494 10.3799C7.49494 10.1048 7.74562 9.81349 7.97737 9.81349C8.10507 9.81349 8.20912 9.89441 8.58277 10.2774C9.4956 11.216 10.3611 11.8093 11.255 12.1114C11.7706 12.284 12.7212 12.3487 13.2462 12.2463C14.3719 12.0251 15.4408 11.367 16.4009 10.3044C17.2712 9.3442 17.8435 8.31392 18.2313 7.0409C18.5151 6.08613 18.5624 5.69236 18.5624 4.20896C18.5624 2.87121 18.5671 2.82806 18.7752 2.70399C18.9313 2.6069 19.1158 2.62847 19.2624 2.77412ZM16.6138 4.37618C16.6516 4.41934 16.6705 4.62971 16.6705 4.96415C16.6705 5.4658 16.6658 5.49277 16.5475 5.60066C16.3962 5.73551 16.1644 5.7463 16.0178 5.62763C15.9232 5.55211 15.9138 5.49817 15.9138 5.06663C15.9138 4.60274 15.9185 4.58655 16.0604 4.4517C16.2165 4.30066 16.5097 4.25751 16.6138 4.37618ZM21.9015 4.49485C22.0576 4.67286 22.0623 4.69444 22.0623 5.08282C22.0623 5.46041 22.0529 5.49817 21.9394 5.60066C21.7691 5.75169 21.5657 5.7463 21.4238 5.57908C21.3151 5.46041 21.3056 5.40647 21.3056 4.94257C21.3056 4.38158 21.334 4.31145 21.5799 4.31145C21.6982 4.31145 21.7833 4.36 21.9015 4.49485ZM12.2577 7.41309C12.8442 7.81765 13.6151 8.08736 14.1874 8.08736C14.5327 8.08736 15.0813 7.9579 15.5496 7.75832C15.98 7.58031 16.0935 7.5911 16.2685 7.82844C16.5097 8.15749 16.4009 8.45417 15.9421 8.7023C15.3178 9.03673 15.0057 9.12304 14.3057 9.15001C13.7665 9.17159 13.601 9.1608 13.2462 9.0637C12.4706 8.85333 11.255 8.06579 11.2881 7.79608C11.2976 7.70977 11.3544 7.66662 11.5104 7.62346C11.6287 7.5911 11.7327 7.53176 11.7422 7.48861C11.7706 7.39152 11.8983 7.2243 11.9456 7.2243C11.9645 7.2243 12.1064 7.3106 12.2577 7.41309ZM26.2765 7.4077C26.3427 7.53716 26.4136 7.60189 26.5319 7.62346C26.7447 7.67201 26.8015 7.85002 26.6454 7.99027C25.7089 8.85333 24.4461 9.30644 23.363 9.17159C22.8995 9.11225 22.2279 8.87491 21.8873 8.64835C21.5894 8.44877 21.5373 8.08197 21.7691 7.80147C21.9299 7.60728 22.0907 7.62346 22.7008 7.87699C23.0981 8.04421 23.1644 8.055 23.7414 8.055C24.3089 8.055 24.3893 8.03881 24.8056 7.88238C25.0515 7.78529 25.4251 7.60189 25.6332 7.47243C25.8414 7.33757 26.0495 7.22969 26.0968 7.22969C26.1441 7.2243 26.2197 7.30521 26.2765 7.4077Z"/>
<path d="M17.9939 15.1269C15.6433 15.5692 13.5575 17.3709 12.7865 19.631C12.4365 20.6451 12.3514 21.1144 12.3467 22.0314C12.342 22.7488 12.3514 22.8675 12.4413 23.0833C12.5595 23.3692 12.6919 23.5364 12.8906 23.6497C13.0088 23.7252 13.2075 23.736 14.1392 23.7198L15.2412 23.7036L15.4446 23.5418C15.7757 23.2775 15.8703 23.0024 15.9129 22.1555C15.946 21.5406 15.9696 21.3733 16.0973 21.0065C16.7642 19.0377 18.8831 18.1746 20.5621 19.1833C20.9594 19.426 21.5128 20.0032 21.7256 20.4078C22.0141 20.958 22.1229 21.3733 22.1276 21.9505C22.1324 22.8028 21.8581 23.4932 21.2621 24.119C20.9689 24.4318 20.8412 24.5073 19.4034 25.2841C18.6466 25.6941 18.325 25.9422 17.9277 26.4331C17.5493 26.9023 17.223 27.609 17.1142 28.1969C17.0764 28.4127 17.0338 28.9737 17.0243 29.443C17.0054 30.2413 17.0101 30.3061 17.1095 30.5326C17.1662 30.6621 17.2845 30.8239 17.3743 30.8886C17.5304 31.0127 17.5635 31.0127 18.8642 31.0127C20.0702 31.0127 20.2121 31.0019 20.3587 30.9102C20.6331 30.7484 20.7182 30.5003 20.7466 29.826C20.7939 28.7579 21.054 28.375 22.156 27.76C22.5297 27.5496 23.0263 27.2368 23.2533 27.0588C24.606 26.0285 25.4668 24.475 25.6938 22.6679C25.831 21.5567 25.6607 20.424 25.183 19.2696C24.8425 18.4551 24.5634 17.9912 24.029 17.3924C23.0878 16.3298 21.7777 15.5315 20.4297 15.197C19.8621 15.0568 18.5567 15.019 17.9939 15.1269Z"/>
<path d="M10.0499 16.2705C10.4944 16.4862 11.2606 16.7182 11.4877 16.7128C11.5728 16.7128 11.4309 16.6535 11.1613 16.5833C10.9012 16.5132 10.4755 16.373 10.2154 16.2651C9.61472 16.017 9.52959 16.0223 10.0499 16.2705Z"/>
<path d="M27.9514 16.2168C27.6629 16.3517 26.6602 16.6645 26.5041 16.6645C26.4568 16.6645 26.4095 16.6861 26.3906 16.7131C26.296 16.8965 27.9703 16.384 28.2399 16.1521C28.3676 16.0388 28.273 16.0604 27.9514 16.2168Z"/>
<path d="M6.61964 20.2889C6.35478 20.5263 6.34532 20.591 6.32167 23.0615C6.29803 25.532 6.30276 25.6022 6.55343 25.8881C6.74735 26.1092 6.96491 26.147 7.22977 25.9959C7.38585 25.9096 7.46626 25.8233 7.5372 25.6507C7.63179 25.4296 7.63652 25.3325 7.63652 23.1316C7.63652 21.74 7.61761 20.769 7.58923 20.6449C7.51355 20.3375 7.30545 20.1703 7.00275 20.1703C6.81356 20.1703 6.71897 20.2026 6.61964 20.2889Z"/>
<path d="M30.6746 20.3112C30.5942 20.3867 30.5091 20.5377 30.4807 20.6456C30.4429 20.7805 30.4334 21.6489 30.4429 23.2456C30.4571 25.5489 30.4618 25.6514 30.5516 25.7916C30.6557 25.9481 30.9016 26.1045 31.053 26.1045C31.1949 26.1045 31.3983 25.9696 31.5401 25.7808L31.6631 25.6082V23.1863C31.6631 20.5539 31.6584 20.5215 31.403 20.2896C31.2091 20.117 30.8638 20.1278 30.6746 20.3112Z"/>
<path d="M18.4814 33.2514C17.8524 33.451 17.3227 33.9581 17.0342 34.6215C16.8923 34.9614 16.8828 35.0099 16.8828 35.5979C16.8828 36.1912 16.8875 36.2344 17.0389 36.585C17.4598 37.5614 18.3963 38.1385 19.2713 37.9713C20.6949 37.6962 21.4564 36.0834 20.8841 34.5568C20.6997 34.0713 20.1368 33.4942 19.6591 33.3054C19.3375 33.1813 18.7794 33.1543 18.4814 33.2514Z"/>
</svg>