<svg viewBox="0 0 45 32">
<path d="M34.95 31.853c-1.446 0-2.766-0.215-3.958-0.645-1.192-0.455-2.207-1.074-3.045-1.858-0.837-0.809-1.497-1.782-1.979-2.919-0.457-1.137-0.685-2.401-0.685-3.791 0-1.441 0.254-2.944 0.761-4.511 0.533-1.567 1.294-3.147 2.283-4.739s2.182-3.159 3.577-4.701c1.421-1.567 3.032-3.071 4.833-4.511l4.377 3.412c-0.837 0.859-1.598 1.681-2.283 2.464-0.66 0.783-1.269 1.567-1.827 2.351s-1.078 1.592-1.56 2.426c-0.457 0.834-0.875 1.719-1.256 2.654l10.351 5.156c0 1.365-0.266 2.616-0.799 3.753-0.507 1.137-1.192 2.11-2.055 2.919s-1.877 1.441-3.044 1.896c-1.167 0.43-2.398 0.645-3.692 0.645zM10.099 31.853c-1.446 0-2.765-0.215-3.958-0.645-1.192-0.455-2.207-1.074-3.045-1.858-0.837-0.809-1.497-1.782-1.979-2.919-0.457-1.137-0.685-2.401-0.685-3.791 0-1.441 0.254-2.944 0.761-4.511 0.533-1.567 1.294-3.147 2.283-4.739s2.182-3.159 3.577-4.701c1.421-1.567 3.032-3.071 4.833-4.511l4.377 3.412c-0.837 0.859-1.598 1.681-2.283 2.464-0.66 0.783-1.269 1.567-1.827 2.351s-1.078 1.592-1.56 2.426c-0.457 0.834-0.875 1.719-1.256 2.654l10.351 5.156c0 1.365-0.266 2.616-0.799 3.753-0.507 1.137-1.192 2.11-2.055 2.919s-1.877 1.441-3.045 1.896c-1.167 0.43-2.398 0.645-3.691 0.645z"></path>
</svg>